Hanif_Shallow_5_0_grf.mot
version=1
nRows=53
nColumns=19
inDegrees=yes
endheader
time	right_ground_force_vx	right_ground_force_vy	right_ground_force_vz	right_ground_force_px	right_ground_force_py	right_ground_force_pz	right_ground_torque_x	right_ground_torque_y	right_ground_torque_z	left_ground_force_vx	left_ground_force_vy	left_ground_force_vz	left_ground_force_px	left_ground_force_py	left_ground_force_pz	left_ground_torque_x	left_ground_torque_y	left_ground_torque_z
0.200000	-0.403134	275.244000	53.371500	0.217335	0.000000	-1.428780	-21.254200	-0.910457	4.780320	-4.882570	289.616000	-53.878400	0.234136	0.000000	-0.976774	21.411000	-0.457143	10.380600
0.205000	-0.741632	276.181000	53.868100	0.217483	0.000000	-1.429540	-21.116600	-0.975273	4.833020	-4.713590	288.496000	-54.024200	0.234292	0.000000	-0.977398	21.506700	-0.435434	10.387200
0.210000	-0.929527	276.349000	53.726700	0.217700	0.000000	-1.429220	-21.217400	-0.985293	4.898500	-4.556980	288.978000	-53.775000	0.233925	0.000000	-0.976997	21.424400	-0.427302	10.285200
0.215000	-0.800552	275.476000	53.474100	0.217314	0.000000	-1.428780	-21.272000	-0.892004	4.788190	-4.617340	288.766000	-53.867000	0.234521	0.000000	-0.977280	21.492000	-0.455419	10.464300
0.220000	-0.455709	275.425000	53.733300	0.216755	0.000000	-1.429490	-21.073600	-0.976849	4.606710	-4.778330	289.805000	-53.755000	0.233906	0.000000	-0.976745	21.415200	-0.471439	10.317200
0.225000	-0.864856	275.263000	53.476700	0.216913	0.000000	-1.428930	-21.214400	-0.988241	4.652250	-4.833790	290.081000	-53.816400	0.234033	0.000000	-0.977500	21.655100	-0.458801	10.364000
0.230000	-0.803619	274.372000	53.606300	0.217386	0.000000	-1.429080	-21.104100	-0.880158	4.792380	-4.665790	288.357000	-53.714600	0.234487	0.000000	-0.977296	21.466400	-0.431095	10.434400
0.235000	-0.768529	275.132000	53.559200	0.217085	0.000000	-1.430220	-20.849000	-0.902036	4.714590	-4.543000	289.125000	-54.251500	0.234155	0.000000	-0.977248	21.507900	-0.424772	10.365700
0.240000	-0.670588	274.109000	53.667700	0.217034	0.000000	-1.429500	-20.968600	-0.955949	4.671090	-5.014540	289.134000	-54.145500	0.234091	0.000000	-0.977634	21.624900	-0.421391	10.351600
0.245000	-0.803011	275.162000	53.765000	0.216352	0.000000	-1.429310	-21.103100	-0.878121	4.511650	-4.798610	289.859000	-54.151300	0.234162	0.000000	-0.977005	21.494800	-0.434667	10.395500
0.250000	-0.868422	273.577000	53.852500	0.217158	0.000000	-1.428980	-21.070800	-0.946780	4.702730	-4.996360	289.919000	-53.964100	0.233843	0.000000	-0.977878	21.754300	-0.457944	10.306600
0.255000	-0.678029	275.506000	53.711200	0.217728	0.000000	-1.430120	-20.905700	-0.879239	4.908500	-4.721190	290.857000	-54.102400	0.233793	0.000000	-0.977139	21.607600	-0.517976	10.330600
0.260000	-0.467979	273.445000	53.363900	0.216518	0.000000	-1.429410	-20.943400	-0.911783	4.517970	-4.952140	290.177000	-54.159100	0.234115	0.000000	-0.977093	21.545300	-0.435370	10.394000
0.265000	-0.896015	273.363000	53.723500	0.216545	0.000000	-1.429070	-21.029200	-0.897006	4.534680	-4.827700	292.108000	-54.154700	0.233638	0.000000	-0.977018	21.664900	-0.455575	10.314200
0.270000	-0.581483	273.890000	53.527700	0.216427	0.000000	-1.429850	-20.855500	-0.877888	4.508020	-4.612010	290.118000	-54.419500	0.233623	0.000000	-0.977476	21.649300	-0.492960	10.254800
0.275000	-0.663985	274.202000	53.406900	0.216010	0.000000	-1.429510	-20.972900	-0.873590	4.396260	-4.658020	290.782000	-54.227800	0.233256	0.000000	-0.977874	21.815600	-0.570457	10.178100
0.280000	-0.193421	272.816000	53.417200	0.216973	0.000000	-1.428880	-21.039400	-0.919373	4.630870	-4.762610	289.815000	-53.918000	0.234006	0.000000	-0.977504	21.637300	-0.543497	10.363600
0.285000	-0.927187	273.040000	53.479800	0.215898	0.000000	-1.429490	-20.890300	-0.878514	4.349160	-4.721640	291.523000	-54.421500	0.233196	0.000000	-0.976939	21.598400	-0.523152	10.177400
0.290000	-0.802984	272.496000	53.263200	0.217088	0.000000	-1.429030	-20.974700	-0.873630	4.675550	-4.613180	292.144000	-54.706300	0.233299	0.000000	-0.977444	21.790700	-0.525303	10.231900
0.295000	-1.082450	272.943000	52.958900	0.216756	0.000000	-1.428940	-21.033700	-0.950001	4.577520	-4.448610	291.122000	-54.534100	0.233469	0.000000	-0.977269	21.661900	-0.493857	10.240000
0.300000	-0.987194	272.338000	53.545500	0.216403	0.000000	-1.429160	-20.927800	-0.924563	4.472970	-4.560800	291.824000	-54.595300	0.233248	0.000000	-0.976815	21.583200	-0.543814	10.206800
0.305000	-0.895818	272.940000	53.346900	0.215971	0.000000	-1.430020	-20.738600	-0.965235	4.350390	-4.496240	292.419000	-54.430900	0.233166	0.000000	-0.976516	21.538700	-0.544123	10.197200
0.310000	-0.352009	272.069000	53.057700	0.215577	0.000000	-1.429510	-20.810400	-0.789784	4.250320	-4.496450	292.728000	-54.460200	0.232719	0.000000	-0.976573	21.576800	-0.485609	10.061100
0.315000	-0.509203	273.868000	52.934600	0.215859	0.000000	-1.429850	-20.854800	-0.777287	4.362880	-4.682140	291.975000	-54.453400	0.232296	0.000000	-0.976354	21.460100	-0.546369	9.923710
0.320000	-0.470870	271.748000	53.340800	0.215567	0.000000	-1.428570	-21.042200	-0.857171	4.232110	-4.674220	292.634000	-54.887900	0.231845	0.000000	-0.975947	21.389200	-0.561007	9.815900
0.325000	-0.118073	271.546000	53.451200	0.216081	0.000000	-1.429620	-20.739500	-0.765502	4.387040	-4.840860	292.277000	-54.478800	0.231901	0.000000	-0.976679	21.578900	-0.571024	9.820830
0.330000	0.099981	272.121000	53.237400	0.215195	0.000000	-1.430400	-20.572700	-0.765270	4.141870	-4.932360	293.892000	-54.808900	0.230946	0.000000	-0.975808	21.443100	-0.653184	9.600000
0.335000	0.480709	270.172000	52.979200	0.215116	0.000000	-1.429740	-20.602900	-0.758182	4.085030	-4.411720	293.902000	-54.475900	0.230972	0.000000	-0.975435	21.328100	-0.612647	9.588300
0.340000	0.680093	271.350000	53.143000	0.215058	0.000000	-1.429990	-20.626200	-0.724983	4.090730	-4.549790	294.329000	-54.734200	0.230498	0.000000	-0.974826	21.181300	-0.642190	9.467070
0.345000	0.564139	272.044000	53.186800	0.215148	0.000000	-1.430100	-20.649100	-0.783714	4.116860	-4.925110	294.301000	-54.599300	0.229812	0.000000	-0.975247	21.307000	-0.682615	9.268390
0.350000	0.203401	270.809000	53.116400	0.214644	0.000000	-1.430010	-20.579200	-0.790187	3.960330	-4.578160	295.672000	-54.796900	0.229364	0.000000	-0.974647	21.224600	-0.681557	9.167400
0.355000	0.368022	270.928000	52.932500	0.214725	0.000000	-1.429820	-20.638600	-0.711152	3.997240	-4.804710	294.156000	-54.634100	0.229058	0.000000	-0.975311	21.313800	-0.692527	9.035600
0.360000	0.324855	271.151000	52.832900	0.214389	0.000000	-1.429150	-20.837100	-0.686970	3.910980	-4.672930	294.109000	-55.098100	0.228095	0.000000	-0.974341	21.023600	-0.732115	8.752560
0.365000	0.287364	271.972000	52.974900	0.213452	0.000000	-1.430400	-20.560000	-0.663383	3.663900	-5.153910	295.742000	-55.319400	0.227850	0.000000	-0.973908	21.017100	-0.766938	8.736340
0.370000	0.464739	271.125000	52.664700	0.213599	0.000000	-1.430480	-20.476500	-0.728240	3.677850	-4.693360	296.330000	-55.229100	0.227089	0.000000	-0.973483	20.928400	-0.834472	8.523310
0.375000	0.499409	271.981000	52.684100	0.213943	0.000000	-1.429730	-20.743200	-0.729740	3.785730	-4.305650	296.422000	-55.861100	0.226231	0.000000	-0.973066	20.806500	-0.813498	8.261770
0.380000	0.512484	272.247000	52.577500	0.213314	0.000000	-1.430700	-20.498900	-0.641047	3.628710	-4.466540	297.141000	-55.649400	0.225565	0.000000	-0.973684	21.042500	-0.896000	8.089720
0.385000	0.049422	272.149000	52.794100	0.213100	0.000000	-1.430820	-20.461500	-0.611088	3.580170	-3.919440	298.345000	-55.934900	0.224271	0.000000	-0.973596	21.095700	-0.930561	7.721950
0.390000	0.249950	271.711000	52.527800	0.212891	0.000000	-1.430970	-20.386000	-0.626037	3.508800	-3.966670	296.926000	-56.357600	0.223404	0.000000	-0.972682	20.724600	-0.962141	7.434690
0.395000	0.493024	271.091000	52.290500	0.212977	0.000000	-1.429960	-20.614600	-0.582879	3.529300	-3.227090	297.930000	-56.842200	0.222060	0.000000	-0.972905	20.854100	-1.049780	7.055040
0.400000	0.613581	271.365000	51.784700	0.212341	0.000000	-1.431140	-20.313600	-0.539008	3.359370	-2.824850	299.672000	-56.760700	0.221474	0.000000	-0.972761	20.929300	-1.126250	6.916810
0.405000	0.786314	270.286000	51.692300	0.211431	0.000000	-1.430740	-20.341700	-0.524064	3.091090	-2.415250	302.809000	-57.166500	0.220668	0.000000	-0.971835	20.864400	-1.224650	6.744010
0.410000	0.556551	269.713000	51.750800	0.211829	0.000000	-1.430640	-20.325600	-0.511258	3.201840	-2.051370	304.373000	-57.891000	0.219813	0.000000	-0.972070	21.040500	-1.299570	6.522750
0.415000	0.515874	271.556000	51.388400	0.211932	0.000000	-1.431100	-20.338800	-0.554447	3.243890	-1.307400	306.377000	-58.513800	0.219318	0.000000	-0.971912	21.123900	-1.342790	6.408180
0.420000	0.677149	270.304000	51.562400	0.211356	0.000000	-1.430790	-20.329600	-0.445668	3.086660	-1.394740	307.744000	-58.743000	0.218651	0.000000	-0.971268	21.020500	-1.367950	6.228210
0.425000	-0.094964	272.325000	51.931300	0.211693	0.000000	-1.431770	-20.215200	-0.483139	3.209260	-1.217930	309.246000	-59.339300	0.217705	0.000000	-0.971733	21.265400	-1.379280	5.957590
0.430000	0.370669	271.401000	51.355400	0.211699	0.000000	-1.431490	-20.222200	-0.543161	3.180850	-1.090420	308.753000	-59.222700	0.217463	0.000000	-0.971557	21.176300	-1.457780	5.883940
0.435000	0.036236	271.410000	50.946800	0.211825	0.000000	-1.431520	-20.215300	-0.410154	3.245040	-1.048420	308.132000	-59.003100	0.217171	0.000000	-0.971671	21.168600	-1.529540	5.791690
0.440000	0.054105	269.777000	50.744700	0.211607	0.000000	-1.431390	-20.127500	-0.480611	3.150810	-0.699874	308.227000	-59.101000	0.216002	0.000000	-0.971508	21.121900	-1.539220	5.417980
0.445000	-0.071278	268.491000	50.383800	0.210825	0.000000	-1.431240	-20.072200	-0.483771	2.919080	-0.541619	306.809000	-58.978000	0.215565	0.000000	-0.971291	20.956700	-1.598320	5.266330
0.450000	-0.542358	268.212000	49.354800	0.211426	0.000000	-1.430060	-20.367800	-0.420897	3.098550	-0.089355	306.252000	-58.406700	0.214813	0.000000	-0.971490	20.976000	-1.729460	5.032620
0.455000	-1.384060	267.718000	48.809700	0.212374	0.000000	-1.430240	-20.283300	-0.484716	3.353690	-0.073534	303.395000	-57.813800	0.214366	0.000000	-0.971501	20.783400	-1.781150	4.857170
0.460000	-2.316890	268.313000	48.104600	0.212835	0.000000	-1.429730	-20.464600	-0.609666	3.476920	0.374636	302.314000	-57.118200	0.214056	0.000000	-0.971805	20.797400	-1.829410	4.741670
